<mxfile host="65bd71144e">
    <diagram id="yQZ9zJu4uXAaw3tFZht8" name="第 1 页">
        <mxGraphModel dx="933" dy="891" grid="1" gridSize="10" guides="1" tooltips="1" connect="1" arrows="1" fold="1" page="1" pageScale="1" pageWidth="827" pageHeight="1169" math="0" shadow="0">
            <root>
                <mxCell id="0"/>
                <mxCell id="2" value="a" parent="0"/>
                <mxCell id="3" value="(a)" style="text;html=1;align=center;verticalAlign=middle;resizable=0;points=[];autosize=1;strokeColor=none;fillColor=none;fontSize=19;fontFamily=Times New Roman;" vertex="1" parent="2">
                    <mxGeometry x="200" y="300" width="40" height="40" as="geometry"/>
                </mxCell>
                <mxCell id="21" value="" style="group" vertex="1" connectable="0" parent="2">
                    <mxGeometry x="80" y="120" width="250" height="190" as="geometry"/>
                </mxCell>
                <mxCell id="6" value="A" style="ellipse;whiteSpace=wrap;html=1;fontFamily=Times New Roman;fontSize=19;" vertex="1" parent="21">
                    <mxGeometry x="120" width="40" height="40" as="geometry"/>
                </mxCell>
                <mxCell id="9" value="B" style="ellipse;whiteSpace=wrap;html=1;fontFamily=Times New Roman;fontSize=19;" vertex="1" parent="21">
                    <mxGeometry x="60" y="50" width="40" height="40" as="geometry"/>
                </mxCell>
                <mxCell id="4" style="edgeStyle=none;html=1;fontFamily=Times New Roman;fontSize=19;endArrow=none;endFill=0;" edge="1" parent="21" source="6" target="9">
                    <mxGeometry relative="1" as="geometry"/>
                </mxCell>
                <mxCell id="12" value="C" style="ellipse;whiteSpace=wrap;html=1;fontFamily=Times New Roman;fontSize=19;" vertex="1" parent="21">
                    <mxGeometry x="180" y="50" width="40" height="40" as="geometry"/>
                </mxCell>
                <mxCell id="5" style="edgeStyle=none;html=1;fontFamily=Times New Roman;fontSize=19;endArrow=none;endFill=0;" edge="1" parent="21" source="6" target="12">
                    <mxGeometry relative="1" as="geometry"/>
                </mxCell>
                <mxCell id="15" value="D" style="ellipse;whiteSpace=wrap;html=1;fontFamily=Times New Roman;fontSize=19;" vertex="1" parent="21">
                    <mxGeometry x="30" y="100" width="40" height="40" as="geometry"/>
                </mxCell>
                <mxCell id="7" style="edgeStyle=none;html=1;fontFamily=Times New Roman;fontSize=19;endArrow=none;endFill=0;" edge="1" parent="21" source="9" target="15">
                    <mxGeometry relative="1" as="geometry"/>
                </mxCell>
                <mxCell id="16" value="" style="ellipse;whiteSpace=wrap;html=1;fontFamily=Times New Roman;fontSize=19;dashed=1;" vertex="1" parent="21">
                    <mxGeometry x="90" y="100" width="40" height="40" as="geometry"/>
                </mxCell>
                <mxCell id="8" style="edgeStyle=none;html=1;fontFamily=Times New Roman;fontSize=19;endArrow=none;endFill=0;dashed=1;" edge="1" parent="21" source="9" target="16">
                    <mxGeometry relative="1" as="geometry"/>
                </mxCell>
                <mxCell id="17" value="F" style="ellipse;whiteSpace=wrap;html=1;fontFamily=Times New Roman;fontSize=19;" vertex="1" parent="21">
                    <mxGeometry x="150" y="100" width="40" height="40" as="geometry"/>
                </mxCell>
                <mxCell id="10" style="edgeStyle=none;html=1;fontFamily=Times New Roman;fontSize=19;endArrow=none;endFill=0;" edge="1" parent="21" source="12" target="17">
                    <mxGeometry relative="1" as="geometry"/>
                </mxCell>
                <mxCell id="18" value="" style="ellipse;whiteSpace=wrap;html=1;fontFamily=Times New Roman;fontSize=19;dashed=1;" vertex="1" parent="21">
                    <mxGeometry x="210" y="100" width="40" height="40" as="geometry"/>
                </mxCell>
                <mxCell id="11" style="edgeStyle=none;html=1;fontFamily=Times New Roman;fontSize=19;endArrow=none;endFill=0;dashed=1;" edge="1" parent="21" source="12" target="18">
                    <mxGeometry relative="1" as="geometry"/>
                </mxCell>
                <mxCell id="19" value="" style="ellipse;whiteSpace=wrap;html=1;fontFamily=Times New Roman;fontSize=19;dashed=1;" vertex="1" parent="21">
                    <mxGeometry y="150" width="40" height="40" as="geometry"/>
                </mxCell>
                <mxCell id="13" style="edgeStyle=none;html=1;endArrow=none;endFill=0;dashed=1;" edge="1" parent="21" source="15" target="19">
                    <mxGeometry relative="1" as="geometry"/>
                </mxCell>
                <mxCell id="20" value="E" style="ellipse;whiteSpace=wrap;html=1;fontFamily=Times New Roman;fontSize=19;" vertex="1" parent="21">
                    <mxGeometry x="60" y="150" width="40" height="40" as="geometry"/>
                </mxCell>
                <mxCell id="14" style="edgeStyle=none;html=1;endArrow=none;endFill=0;" edge="1" parent="21" source="15" target="20">
                    <mxGeometry relative="1" as="geometry"/>
                </mxCell>
                <mxCell id="1" value="b" parent="0"/>
                <mxCell id="22" value="" style="shape=table;startSize=0;container=1;collapsible=0;childLayout=tableLayout;fontSize=19;fontFamily=Times New Roman;" vertex="1" parent="1">
                    <mxGeometry x="360" y="160" width="420" height="80" as="geometry"/>
                </mxCell>
                <mxCell id="23" value="" style="shape=tableRow;horizontal=0;startSize=0;swimlaneHead=0;swimlaneBody=0;top=0;left=0;bottom=0;right=0;collapsible=0;dropTarget=0;fillColor=none;points=[[0,0.5],[1,0.5]];portConstraint=eastwest;fontSize=19;fontFamily=Times New Roman;" vertex="1" parent="22">
                    <mxGeometry width="420" height="40" as="geometry"/>
                </mxCell>
                <mxCell id="24" value="index" style="shape=partialRectangle;html=1;whiteSpace=wrap;connectable=0;overflow=hidden;fillColor=none;top=0;left=0;bottom=0;right=0;pointerEvents=1;fontSize=19;fontFamily=Times New Roman;" vertex="1" parent="23">
                    <mxGeometry width="60" height="40" as="geometry">
                        <mxRectangle width="60" height="40" as="alternateBounds"/>
                    </mxGeometry>
                </mxCell>
                <mxCell id="25" value="1" style="shape=partialRectangle;html=1;whiteSpace=wrap;connectable=1;overflow=hidden;fillColor=none;top=0;left=0;bottom=0;right=0;pointerEvents=1;fontSize=19;fontFamily=Times New Roman;movable=1;resizable=1;rotatable=1;deletable=1;editable=1;" vertex="1" parent="23">
                    <mxGeometry x="60" width="40" height="40" as="geometry">
                        <mxRectangle width="40" height="40" as="alternateBounds"/>
                    </mxGeometry>
                </mxCell>
                <mxCell id="26" value="2" style="shape=partialRectangle;html=1;whiteSpace=wrap;connectable=1;overflow=hidden;fillColor=none;top=0;left=0;bottom=0;right=0;pointerEvents=1;fontSize=19;fontFamily=Times New Roman;movable=1;resizable=1;rotatable=1;deletable=1;editable=1;" vertex="1" parent="23">
                    <mxGeometry x="100" width="40" height="40" as="geometry">
                        <mxRectangle width="40" height="40" as="alternateBounds"/>
                    </mxGeometry>
                </mxCell>
                <mxCell id="27" value="3" style="shape=partialRectangle;html=1;whiteSpace=wrap;connectable=1;overflow=hidden;fillColor=none;top=0;left=0;bottom=0;right=0;pointerEvents=1;fontSize=19;fontFamily=Times New Roman;movable=1;resizable=1;rotatable=1;deletable=1;editable=1;" vertex="1" parent="23">
                    <mxGeometry x="140" width="40" height="40" as="geometry">
                        <mxRectangle width="40" height="40" as="alternateBounds"/>
                    </mxGeometry>
                </mxCell>
                <mxCell id="28" value="4" style="shape=partialRectangle;html=1;whiteSpace=wrap;connectable=1;overflow=hidden;fillColor=none;top=0;left=0;bottom=0;right=0;pointerEvents=1;fontSize=19;fontFamily=Times New Roman;movable=1;resizable=1;rotatable=1;deletable=1;editable=1;" vertex="1" parent="23">
                    <mxGeometry x="180" width="40" height="40" as="geometry">
                        <mxRectangle width="40" height="40" as="alternateBounds"/>
                    </mxGeometry>
                </mxCell>
                <mxCell id="29" value="5" style="shape=partialRectangle;html=1;whiteSpace=wrap;connectable=1;overflow=hidden;fillColor=none;top=0;left=0;bottom=0;right=0;pointerEvents=1;fontSize=19;fontFamily=Times New Roman;movable=1;resizable=1;rotatable=1;deletable=1;editable=1;" vertex="1" parent="23">
                    <mxGeometry x="220" width="40" height="40" as="geometry">
                        <mxRectangle width="40" height="40" as="alternateBounds"/>
                    </mxGeometry>
                </mxCell>
                <mxCell id="30" value="6" style="shape=partialRectangle;html=1;whiteSpace=wrap;connectable=1;overflow=hidden;fillColor=none;top=0;left=0;bottom=0;right=0;pointerEvents=1;fontSize=19;fontFamily=Times New Roman;movable=1;resizable=1;rotatable=1;deletable=1;editable=1;" vertex="1" parent="23">
                    <mxGeometry x="260" width="40" height="40" as="geometry">
                        <mxRectangle width="40" height="40" as="alternateBounds"/>
                    </mxGeometry>
                </mxCell>
                <mxCell id="31" value="7" style="shape=partialRectangle;html=1;whiteSpace=wrap;connectable=1;overflow=hidden;fillColor=none;top=0;left=0;bottom=0;right=0;pointerEvents=1;fontSize=19;fontFamily=Times New Roman;movable=1;resizable=1;rotatable=1;deletable=1;editable=1;" vertex="1" parent="23">
                    <mxGeometry x="300" width="40" height="40" as="geometry">
                        <mxRectangle width="40" height="40" as="alternateBounds"/>
                    </mxGeometry>
                </mxCell>
                <mxCell id="32" value="8" style="shape=partialRectangle;html=1;whiteSpace=wrap;connectable=1;overflow=hidden;fillColor=none;top=0;left=0;bottom=0;right=0;pointerEvents=1;fontSize=19;fontFamily=Times New Roman;movable=1;resizable=1;rotatable=1;deletable=1;editable=1;" vertex="1" parent="23">
                    <mxGeometry x="340" width="40" height="40" as="geometry">
                        <mxRectangle width="40" height="40" as="alternateBounds"/>
                    </mxGeometry>
                </mxCell>
                <mxCell id="33" value="9" style="shape=partialRectangle;html=1;whiteSpace=wrap;connectable=1;overflow=hidden;fillColor=none;top=0;left=0;bottom=0;right=0;pointerEvents=1;fontSize=19;fontFamily=Times New Roman;movable=1;resizable=1;rotatable=1;deletable=1;editable=1;" vertex="1" parent="23">
                    <mxGeometry x="380" width="40" height="40" as="geometry">
                        <mxRectangle width="40" height="40" as="alternateBounds"/>
                    </mxGeometry>
                </mxCell>
                <mxCell id="34" value="" style="shape=tableRow;horizontal=0;startSize=0;swimlaneHead=0;swimlaneBody=0;top=0;left=0;bottom=0;right=0;collapsible=0;dropTarget=0;fillColor=none;points=[[0,0.5],[1,0.5]];portConstraint=eastwest;fontSize=19;fontFamily=Times New Roman;" vertex="1" parent="22">
                    <mxGeometry y="40" width="420" height="40" as="geometry"/>
                </mxCell>
                <mxCell id="35" value="data" style="shape=partialRectangle;html=1;whiteSpace=wrap;connectable=0;overflow=hidden;fillColor=none;top=0;left=0;bottom=0;right=0;pointerEvents=1;fontSize=19;fontFamily=Times New Roman;" vertex="1" parent="34">
                    <mxGeometry width="60" height="40" as="geometry">
                        <mxRectangle width="60" height="40" as="alternateBounds"/>
                    </mxGeometry>
                </mxCell>
                <mxCell id="36" value="A" style="shape=partialRectangle;html=1;whiteSpace=wrap;connectable=1;overflow=hidden;fillColor=none;top=0;left=0;bottom=0;right=0;pointerEvents=1;fontSize=19;fontFamily=Times New Roman;movable=1;resizable=1;rotatable=1;deletable=1;editable=1;" vertex="1" parent="34">
                    <mxGeometry x="60" width="40" height="40" as="geometry">
                        <mxRectangle width="40" height="40" as="alternateBounds"/>
                    </mxGeometry>
                </mxCell>
                <mxCell id="37" value="B" style="shape=partialRectangle;html=1;whiteSpace=wrap;connectable=1;overflow=hidden;fillColor=none;top=0;left=0;bottom=0;right=0;pointerEvents=1;fontSize=19;fontFamily=Times New Roman;movable=1;resizable=1;rotatable=1;deletable=1;editable=1;" vertex="1" parent="34">
                    <mxGeometry x="100" width="40" height="40" as="geometry">
                        <mxRectangle width="40" height="40" as="alternateBounds"/>
                    </mxGeometry>
                </mxCell>
                <mxCell id="38" value="C" style="shape=partialRectangle;html=1;whiteSpace=wrap;connectable=1;overflow=hidden;fillColor=none;top=0;left=0;bottom=0;right=0;pointerEvents=1;fontSize=19;fontFamily=Times New Roman;movable=1;resizable=1;rotatable=1;deletable=1;editable=1;" vertex="1" parent="34">
                    <mxGeometry x="140" width="40" height="40" as="geometry">
                        <mxRectangle width="40" height="40" as="alternateBounds"/>
                    </mxGeometry>
                </mxCell>
                <mxCell id="39" value="D" style="shape=partialRectangle;html=1;whiteSpace=wrap;connectable=1;overflow=hidden;fillColor=none;top=0;left=0;bottom=0;right=0;pointerEvents=1;fontSize=19;fontFamily=Times New Roman;movable=1;resizable=1;rotatable=1;deletable=1;editable=1;" vertex="1" parent="34">
                    <mxGeometry x="180" width="40" height="40" as="geometry">
                        <mxRectangle width="40" height="40" as="alternateBounds"/>
                    </mxGeometry>
                </mxCell>
                <mxCell id="40" value="^" style="shape=partialRectangle;html=1;whiteSpace=wrap;connectable=1;overflow=hidden;fillColor=none;top=0;left=0;bottom=0;right=0;pointerEvents=1;fontSize=19;fontFamily=Times New Roman;movable=1;resizable=1;rotatable=1;deletable=1;editable=1;" vertex="1" parent="34">
                    <mxGeometry x="220" width="40" height="40" as="geometry">
                        <mxRectangle width="40" height="40" as="alternateBounds"/>
                    </mxGeometry>
                </mxCell>
                <mxCell id="41" value="F" style="shape=partialRectangle;html=1;whiteSpace=wrap;connectable=1;overflow=hidden;fillColor=none;top=0;left=0;bottom=0;right=0;pointerEvents=1;fontSize=19;fontFamily=Times New Roman;movable=1;resizable=1;rotatable=1;deletable=1;editable=1;" vertex="1" parent="34">
                    <mxGeometry x="260" width="40" height="40" as="geometry">
                        <mxRectangle width="40" height="40" as="alternateBounds"/>
                    </mxGeometry>
                </mxCell>
                <mxCell id="42" value="^" style="shape=partialRectangle;html=1;whiteSpace=wrap;connectable=1;overflow=hidden;fillColor=none;top=0;left=0;bottom=0;right=0;pointerEvents=1;fontSize=19;fontFamily=Times New Roman;movable=1;resizable=1;rotatable=1;deletable=1;editable=1;" vertex="1" parent="34">
                    <mxGeometry x="300" width="40" height="40" as="geometry">
                        <mxRectangle width="40" height="40" as="alternateBounds"/>
                    </mxGeometry>
                </mxCell>
                <mxCell id="43" value="^" style="shape=partialRectangle;html=1;whiteSpace=wrap;connectable=1;overflow=hidden;fillColor=none;top=0;left=0;bottom=0;right=0;pointerEvents=1;fontSize=19;fontFamily=Times New Roman;movable=1;resizable=1;rotatable=1;deletable=1;editable=1;" vertex="1" parent="34">
                    <mxGeometry x="340" width="40" height="40" as="geometry">
                        <mxRectangle width="40" height="40" as="alternateBounds"/>
                    </mxGeometry>
                </mxCell>
                <mxCell id="44" value="E" style="shape=partialRectangle;html=1;whiteSpace=wrap;connectable=1;overflow=hidden;fillColor=none;top=0;left=0;bottom=0;right=0;pointerEvents=1;fontSize=19;fontFamily=Times New Roman;movable=1;resizable=1;rotatable=1;deletable=1;editable=1;" vertex="1" parent="34">
                    <mxGeometry x="380" width="40" height="40" as="geometry">
                        <mxRectangle width="40" height="40" as="alternateBounds"/>
                    </mxGeometry>
                </mxCell>
                <mxCell id="45" value="(b)" style="text;html=1;align=center;verticalAlign=middle;resizable=0;points=[];autosize=1;strokeColor=none;fillColor=none;fontSize=19;fontFamily=Times New Roman;" vertex="1" parent="1">
                    <mxGeometry x="555" y="300" width="50" height="40" as="geometry"/>
                </mxCell>
            </root>
        </mxGraphModel>
    </diagram>
</mxfile>